# xmcd CD database file
#
# Track frame offsets:
#	150
#	15868
#	34355
#	52708
#	68613
#	87529
#	107634
#	118212
#	130716
#	144339
#	164601
#	191620
#
# Disc length: 2732 seconds
#
# Revision: 0
# Processed by: cddbd v1.5.2PL0 Copyright (c) Steve Scherf et al.
# Submitted via: CDex 1.51
#
DISCID=9b0aaa0c
DTITLE=JJ Grey&Mofro - Country Ghetto
DYEAR=2007
DGENRE=Country
TTITLE0=War
TTITLE1=Circles
TTITLE2=Country Ghetto
TTITLE3=Tragic
TTITLE4=By My Side
TTITLE5=On Palastine
TTITLE6=Fontsteps
TTITLE7=Turpentine
TTITLE8=A Woman
TTITLE9=Mississippi
TTITLE10=The Sun is Shining Down
TTITLE11=Goodbey
EXTD=YEAR: 2007
EXTT0=
EXTT1=
EXTT2=
EXTT3=
EXTT4=
EXTT5=
EXTT6=
EXTT7=
EXTT8=
EXTT9=
EXTT10=
EXTT11=
PLAYORDER=
